<?xml version="1.0" standalone="no"?>
<!DOCTYPE svg PUBLIC "-//W3C//DTD SVG 20010904//EN"
 "http://www.w3.org/TR/2001/REC-SVG-20010904/DTD/svg10.dtd">
<svg version="1.0" xmlns="http://www.w3.org/2000/svg"
 width="1280.000000pt" height="719.000000pt" viewBox="0 0 1280.000000 719.000000"
 preserveAspectRatio="xMidYMid meet">
<metadata>
Created by potrace 1.16, written by Peter Selinger 2001-2019
</metadata>
<g transform="translate(0.000000,719.000000) scale(0.100000,-0.100000)"
fill="#000000" stroke="none">
<path d="M9005 5409 l-380 -168 -6 -68 c-4 -37 -7 -212 -8 -388 l-1 -321 -115
-37 -115 -38 0 -168 0 -168 -67 -6 c-38 -4 -195 -7 -350 -7 l-283 0 0 230 0
230 -154 0 -153 0 -8 -409 -7 -410 -52 -5 c-28 -3 -397 -21 -821 -41 -423 -19
-801 -37 -840 -41 l-70 -5 -65 -180 c-35 -99 -67 -183 -70 -188 -3 -5 -965
-10 -2137 -13 l-2133 -4 0 98 0 98 -215 0 -215 0 0 -100 0 -100 -130 0 -130 0
0 30 c0 23 4 30 20 30 13 0 20 7 20 20 0 13 -7 20 -20 20 -11 0 -20 5 -20 10
0 6 -11 10 -25 10 -14 0 -25 -4 -25 -10 0 -5 -25 -10 -55 -10 -48 0 -55 -2
-55 -20 0 -18 7 -20 55 -20 54 0 55 0 55 -30 l0 -30 -215 0 c-125 0 -215 -4
-215 -9 0 -5 32 -30 70 -56 69 -46 158 -88 378 -180 259 -108 398 -243 494
-477 l32 -78 5730 0 5731 0 50 24 c99 46 174 167 241 389 24 82 74 314 74 348
0 18 -8 19 -155 19 l-155 0 0 75 0 75 28 0 c29 0 112 52 112 69 0 5 -21 16
-47 25 -26 9 -60 28 -75 43 l-28 27 0 -157 0 -157 -260 0 -260 0 0 90 0 90
-75 0 -75 0 0 110 0 110 -55 0 c-47 0 -55 3 -55 19 0 10 -17 52 -37 92 -84
170 -254 277 -539 339 -225 48 -298 52 -1036 57 l-698 5 -2 742 -3 743 -380
-168z m745 -1869 l0 -360 -180 0 -180 0 0 360 0 360 180 0 180 0 0 -360z"/>
</g>
</svg>
