<?xml version="1.0" standalone="no"?>
<!DOCTYPE svg PUBLIC "-//W3C//DTD SVG 20010904//EN"
 "http://www.w3.org/TR/2001/REC-SVG-20010904/DTD/svg10.dtd">
<svg version="1.0" xmlns="http://www.w3.org/2000/svg"
 width="1280.000000pt" height="719.000000pt" viewBox="0 0 1280.000000 719.000000"
 preserveAspectRatio="xMidYMid meet">
<metadata>
Created by potrace 1.16, written by Peter Selinger 2001-2019
</metadata>
<g transform="translate(0.000000,719.000000) scale(0.100000,-0.100000)"
fill="#000000" stroke="none">
<path d="M4982 5685 l3 -455 -57 0 -58 0 0 -65 0 -65 45 0 45 0 0 -340 0 -340
-155 0 -155 0 0 55 0 55 65 0 65 0 -1 38 c-1 31 -9 44 -48 78 l-46 41 -137 8
-138 7 0 -26 c0 -14 -2 -26 -4 -26 -2 0 -68 7 -147 15 -114 12 -144 13 -151 3
-19 -30 -14 -32 147 -48 61 -6 120 -13 133 -16 26 -5 30 -24 5 -24 -35 0 -46
-16 -39 -54 5 -28 12 -36 28 -36 14 0 18 -5 14 -16 -3 -9 -6 -22 -6 -30 0 -10
-12 -14 -41 -14 -36 0 -46 6 -84 47 l-43 46 -63 -55 c-106 -91 -132 -103 -221
-103 l-78 0 0 58 0 57 95 0 95 0 0 40 0 39 -57 16 c-32 9 -69 20 -83 24 -14 4
-87 5 -162 3 l-137 -4 -23 -34 -23 -34 -201 0 c-217 0 -264 -5 -264 -26 0 -12
42 -14 233 -14 231 0 234 0 255 -23 14 -14 22 -36 22 -57 l0 -33 -286 7 c-157
3 -332 9 -389 13 l-103 6 15 34 c11 28 12 42 3 70 -7 19 -9 49 -6 66 4 23 0
39 -15 56 -18 22 -36 27 -157 43 -75 9 -143 17 -149 18 -8 0 -13 14 -13 34 0
30 -4 35 -31 41 -35 8 -149 -3 -165 -16 -6 -5 -98 -3 -210 5 -109 7 -203 9
-208 5 -21 -18 12 -27 126 -33 207 -11 288 -18 288 -26 0 -4 -32 -16 -71 -26
l-71 -18 6 -37 c4 -28 2 -38 -10 -43 -23 -9 -45 -70 -38 -105 6 -31 6 -31 -35
-31 -38 0 -41 -2 -41 -27 0 -54 31 -157 66 -224 66 -125 179 -211 314 -238 73
-15 315 -31 466 -31 67 0 149 -3 183 -7 68 -7 83 -19 96 -80 l7 -33 -78 0
c-60 0 -84 -4 -110 -20 -28 -18 -42 -20 -99 -14 -63 7 -66 8 -61 30 6 21 3 24
-24 24 -27 0 -30 -3 -30 -30 l0 -30 -65 0 -65 0 0 -35 c0 -41 20 -55 79 -55
37 0 41 -2 41 -25 0 -22 4 -25 35 -25 31 0 35 3 35 25 0 24 2 25 63 25 54 0
67 -4 97 -29 l35 -28 920 -7 c506 -4 1998 -13 3315 -21 1317 -8 2613 -15 2880
-17 l485 -3 32 110 c18 61 32 124 32 141 2 88 87 348 121 369 26 16 4 25 -57
25 -38 0 -174 -7 -303 -15 -129 -8 -336 -19 -460 -25 -245 -11 -893 -12 -925
-2 -47 16 -66 38 -72 90 l-6 51 287 -6 c249 -5 286 -4 286 9 0 12 -47 16 -302
26 -269 10 -315 14 -408 37 -80 20 -142 27 -260 32 l-155 6 -27 -39 c-15 -23
-29 -60 -33 -90 l-6 -51 51 -7 c50 -7 51 -7 48 -39 -4 -38 21 -37 -325 -18
l-242 14 -3 175 -3 174 225 -6 c124 -4 291 -9 373 -12 132 -6 147 -5 147 10 0
9 -6 19 -12 21 -7 2 -179 11 -383 19 l-370 15 -95 32 c-84 28 -114 32 -255 39
-157 7 -160 7 -197 -17 -38 -23 -38 -24 -38 -88 l0 -65 50 0 c54 0 52 2 64
-82 l5 -38 -63 0 c-35 0 -97 3 -139 6 l-77 7 0 88 0 88 -77 3 -76 3 -12 34
c-6 19 -16 36 -21 37 -5 2 -52 -51 -104 -116 l-95 -118 -90 -3 c-49 -2 -91 -4
-92 -4 -1 0 -5 135 -9 299 l-7 298 31 -7 c32 -7 32 -6 32 34 l0 41 -90 0 -90
0 0 -35 c0 -31 3 -35 25 -35 l25 0 0 -300 0 -300 -204 0 -203 0 -7 61 c-3 34
-6 173 -6 310 l0 248 77 48 78 48 -73 3 -72 3 0 121 0 121 99 -6 c97 -7 99 -7
115 18 9 13 16 42 16 65 l0 40 -100 0 -100 0 0 45 0 45 139 0 140 0 20 29 c13
18 21 45 21 70 l0 41 -175 0 -175 0 0 45 c0 39 3 45 20 45 31 0 40 38 40 161
0 103 -1 111 -25 134 -21 22 -33 25 -90 25 -89 0 -92 -8 -76 -172 13 -123 25
-158 58 -158 9 0 13 -13 13 -40 l0 -40 -144 0 c-122 0 -145 -2 -150 -16 -11
-28 -6 -58 13 -84 18 -23 25 -24 95 -21 l76 3 0 -64 c0 -34 7 -290 15 -568 8
-278 15 -517 15 -532 0 -26 -3 -28 -45 -28 l-45 0 0 105 c0 58 -4 105 -9 105
-5 0 -11 10 -13 23 -2 15 -11 23 -29 25 -27 3 -48 -21 -29 -33 6 -4 10 1 10 9
0 9 6 16 13 16 21 0 28 -12 16 -27 -8 -9 -38 -13 -100 -13 l-89 0 0 50 0 50
115 0 115 0 0 100 0 100 -42 -1 c-28 0 -96 -21 -188 -57 l-145 -58 -3 -185 -2
-185 -88 3 c-48 2 -111 6 -139 9 l-53 5 0 148 c0 81 -3 277 -7 434 l-6 287
-49 0 -48 0 0 48 c0 27 -3 83 -6 125 l-7 77 52 0 51 0 0 34 c0 36 -15 46 -72
46 l-28 0 0 260 0 260 -46 0 -46 0 4 -455z"/>
</g>
</svg>
