<?xml version="1.0" standalone="no"?>
<!DOCTYPE svg PUBLIC "-//W3C//DTD SVG 20010904//EN"
 "http://www.w3.org/TR/2001/REC-SVG-20010904/DTD/svg10.dtd">
<svg version="1.0" xmlns="http://www.w3.org/2000/svg"
 width="1280.000000pt" height="720.000000pt" viewBox="0 0 1280.000000 720.000000"
 preserveAspectRatio="xMidYMid meet">
<metadata>
Created by potrace 1.16, written by Peter Selinger 2001-2019
</metadata>
<g transform="translate(0.000000,720.000000) scale(0.100000,-0.100000)"
fill="#000000" stroke="none">
<path d="M8110 5195 l0 -55 -47 1 c-27 1 -38 4 -25 6 19 4 22 11 22 49 l0 44
-60 0 -60 0 0 -44 c0 -38 3 -45 23 -49 12 -2 1 -5 -25 -6 -46 -1 -48 -2 -48
-31 0 -29 2 -30 45 -30 41 0 45 -2 45 -25 0 -22 -4 -25 -35 -25 -31 0 -35 -3
-35 -25 0 -22 4 -25 35 -25 19 0 35 -4 35 -10 0 -5 -22 -10 -50 -10 -47 0 -50
2 -50 25 0 16 -6 25 -15 25 -8 0 -15 -6 -15 -14 0 -7 -3 -28 -6 -45 l-6 -31
71 0 71 0 0 -30 c0 -28 -2 -30 -40 -30 -44 0 -48 -9 -27 -53 13 -29 47 -37 47
-12 0 8 5 15 10 15 6 0 10 -35 10 -85 0 -69 -3 -85 -15 -85 -11 0 -15 12 -15
50 0 43 -3 50 -20 50 -17 0 -20 -7 -20 -50 0 -43 -3 -50 -20 -50 -15 0 -20 7
-20 25 0 16 -6 25 -15 25 -9 0 -15 -9 -15 -25 0 -24 -3 -25 -58 -25 l-58 0 4
40 c4 40 4 40 -32 40 -25 0 -36 -4 -36 -15 0 -8 -7 -15 -15 -15 -12 0 -15 -13
-15 -55 0 -52 -1 -55 -25 -55 -21 0 -25 -5 -25 -30 0 -25 4 -30 25 -30 16 0
25 -6 25 -15 0 -8 -9 -15 -20 -15 -29 0 -27 -37 3 -43 16 -3 13 -5 -10 -6 -30
-1 -33 -4 -33 -31 0 -30 -1 -30 -55 -30 -42 0 -55 -3 -55 -15 0 -10 11 -15 35
-15 31 0 35 -3 35 -26 0 -35 22 -54 64 -54 l36 0 0 -60 0 -60 -84 0 -83 0 -6
42 c-4 27 0 52 9 69 20 40 18 49 -12 49 -17 0 -42 -14 -70 -40 -24 -22 -52
-41 -61 -42 -26 -2 -36 -4 -56 -13 -10 -4 -28 -3 -40 3 -33 17 -162 8 -244
-16 -88 -27 -85 -27 -101 -2 -10 17 -10 26 3 50 37 72 -7 82 -80 18 l-49 -43
-140 -1 c-82 0 -153 -6 -169 -12 -16 -7 -53 -12 -83 -12 -63 0 -74 12 -50 59
22 42 20 51 -12 51 -19 0 -38 -11 -58 -31 -36 -39 -75 -55 -136 -58 -42 -2
-48 1 -48 19 0 13 7 20 20 20 13 0 20 7 20 19 0 14 -10 20 -46 25 -72 9 -74 9
-74 -24 0 -28 -2 -30 -40 -30 -29 0 -40 -4 -40 -15 0 -10 -10 -15 -31 -15
l-32 0 7 90 7 90 -136 0 c-108 0 -135 -3 -135 -14 0 -7 -3 -28 -6 -45 -6 -28
-4 -31 20 -31 22 0 26 4 26 30 l0 30 94 0 94 0 6 -31 c3 -17 6 -55 6 -84 0
-46 -3 -53 -25 -63 -36 -17 -48 -15 -63 8 -10 17 -10 26 3 50 8 16 15 36 15
45 0 27 -44 17 -87 -20 -23 -19 -48 -35 -55 -35 -8 0 -18 -3 -21 -7 -13 -12
-79 -14 -93 -2 -8 6 -21 8 -31 3 -28 -12 -127 -10 -140 3 -7 6 -13 23 -13 37
0 14 -4 26 -10 26 -5 0 -10 -13 -10 -30 0 -16 -4 -30 -10 -30 -5 0 -10 -8 -10
-18 0 -13 -13 -22 -50 -31 -27 -7 -50 -17 -50 -21 0 -5 19 -11 43 -13 l42 -4
-46 -1 -46 -2 -6 42 c-4 27 0 52 9 69 20 40 18 49 -14 49 -19 0 -38 -11 -58
-31 -16 -17 -42 -37 -59 -44 -34 -14 -147 -19 -200 -9 -35 6 -35 6 -35 60 0
41 -4 54 -15 54 -12 0 -15 -13 -15 -55 0 -43 -4 -56 -19 -65 -48 -25 -51 -19
-51 115 0 104 -2 125 -15 125 -13 0 -15 -21 -15 -130 l0 -130 -26 -10 c-37
-14 -48 -12 -62 10 -10 17 -10 26 3 50 37 72 -7 82 -80 18 l-49 -43 -135 -1
c-106 -1 -153 -6 -213 -22 -43 -12 -80 -22 -83 -22 -3 0 -5 -4 -5 -9 0 -6 19
-12 43 -14 l42 -4 -46 -1 -46 -2 -6 42 c-4 27 0 52 9 69 21 42 18 49 -26 49
-28 0 -40 -4 -40 -14 0 -8 -17 -28 -37 -43 -36 -27 -40 -28 -172 -29 -116 -1
-150 -5 -226 -27 -73 -22 -111 -27 -202 -27 l-113 0 0 70 c0 40 -4 70 -10 70
-6 0 -10 -30 -10 -70 l0 -70 -90 0 -90 0 0 145 c0 122 -2 145 -15 145 -13 0
-15 -23 -15 -145 0 -122 -2 -145 -15 -145 -13 0 -15 23 -15 145 0 122 -2 145
-15 145 -13 0 -15 -23 -15 -145 l0 -145 -294 0 c-162 0 -301 3 -310 6 -13 5
-16 24 -16 100 0 77 -3 94 -15 94 -12 0 -15 -17 -15 -94 0 -112 10 -106 -167
-106 l-123 0 0 140 c0 87 -4 140 -10 140 -6 0 -10 -53 -10 -140 0 -133 -1
-140 -20 -140 -19 0 -20 7 -20 141 0 91 -4 138 -10 134 -6 -4 -10 -62 -10
-141 0 -83 -4 -134 -10 -134 -6 0 -10 51 -10 134 0 79 -4 137 -10 141 -6 4
-10 -43 -10 -134 l0 -141 -30 0 c-25 0 -30 -4 -30 -24 0 -20 6 -25 33 -29 l32
-4 -32 -1 c-32 -2 -33 -3 -33 -47 l0 -44 93 -62 c170 -115 240 -188 263 -278
l11 -46 199 -6 c109 -4 1056 -9 2104 -13 1048 -4 2893 -11 4100 -16 1317 -6
2196 -6 2200 0 4 7 111 30 143 30 4 0 7 32 7 70 0 40 4 70 10 70 6 0 10 14 10
30 0 21 -5 30 -16 30 -9 0 -14 7 -12 18 3 14 13 16 56 14 l52 -3 0 39 c0 37
-2 40 -32 45 -18 3 -43 8 -55 12 -17 5 -23 3 -23 -8 0 -10 -12 -16 -35 -19
-29 -3 -35 -1 -35 14 0 10 5 18 10 18 6 0 10 9 10 20 0 16 9 21 49 26 66 9 71
13 64 62 -5 39 -8 42 -37 42 -17 0 -56 7 -86 16 -39 11 -106 15 -235 16 -99 1
-169 3 -156 5 21 4 23 8 17 43 -4 24 0 51 9 74 19 46 19 46 -11 46 -16 0 -43
-15 -70 -39 -53 -47 -69 -50 -204 -46 -67 2 -121 -2 -150 -10 -25 -8 -66 -19
-92 -26 -27 -8 -48 -16 -48 -20 0 -10 134 -21 163 -14 14 4 28 2 31 -4 5 -8
-33 -11 -126 -10 -73 1 -125 3 -116 6 9 2 18 11 20 19 2 8 76 53 166 100 l162
84 0 -30 c0 -20 5 -30 15 -30 11 0 15 11 15 39 0 25 5 41 15 45 11 4 15 -2 15
-24 0 -17 5 -30 10 -30 6 0 10 15 10 34 0 19 5 38 10 41 17 11 11 45 -7 45
-10 -1 -104 -36 -209 -78 -106 -43 -190 -72 -187 -65 3 9 -4 13 -22 13 -17 0
-46 -15 -78 -42 l-51 -43 -135 -1 c-98 -1 -153 -6 -196 -18 -33 -10 -70 -20
-82 -23 -13 -3 -23 -9 -23 -13 0 -10 121 -21 157 -14 18 3 33 1 37 -5 5 -8
-33 -11 -131 -10 -76 1 -126 4 -110 6 20 3 27 10 27 27 0 12 -5 27 -10 32 -7
7 -6 22 5 47 21 50 19 57 -12 57 -18 0 -41 -13 -68 -40 -25 -25 -52 -41 -71
-43 -16 -2 -35 -7 -42 -11 -6 -4 -50 -2 -96 4 -71 10 -94 9 -133 -3 -26 -8
-69 -20 -95 -27 -27 -7 -48 -16 -48 -20 0 -11 133 -22 164 -14 15 3 26 2 26
-4 0 -15 -38 -22 -129 -22 l-83 0 3 63 c1 34 2 104 1 155 -2 74 -5 92 -17 92
-12 0 -15 -17 -15 -90 0 -73 -3 -90 -15 -90 -12 0 -15 16 -15 85 0 50 -4 85
-10 85 -5 0 -10 5 -10 10 0 6 7 10 15 10 8 0 15 7 15 15 0 8 5 15 10 15 6 0
10 9 10 20 0 16 -7 20 -30 20 -29 0 -30 2 -30 45 l0 45 60 0 c53 0 60 2 60 20
0 18 -7 20 -70 20 -56 0 -70 3 -70 15 0 8 7 15 15 15 10 0 15 10 15 30 0 20
-5 30 -15 30 -9 0 -15 9 -15 25 0 16 -6 25 -15 25 -11 0 -15 -12 -15 -45 0
-25 -4 -45 -10 -45 -5 0 -10 5 -10 10 0 6 -13 10 -30 10 -27 0 -30 -3 -30 -31
0 -31 0 -31 40 -25 25 4 40 2 40 -4 0 -6 -29 -10 -70 -10 -63 0 -70 -2 -70
-20 0 -18 7 -20 55 -20 l55 0 0 -45 c0 -41 -2 -45 -25 -45 -18 0 -25 -5 -25
-20 0 -11 5 -20 10 -20 6 0 10 -7 10 -15 0 -8 7 -15 15 -15 8 0 15 -4 15 -10
0 -5 -4 -10 -10 -10 -6 0 -10 -57 -10 -150 0 -93 -4 -150 -10 -150 -5 0 -10 5
-10 10 0 6 -7 10 -15 10 -13 0 -15 23 -15 145 0 122 -2 145 -15 145 -11 0 -15
-12 -15 -45 l0 -45 -40 0 c-33 0 -40 -3 -40 -20 0 -11 -4 -20 -10 -20 -5 0
-10 20 -10 44 l0 44 45 -6 45 -5 0 67 0 66 -39 0 c-22 0 -42 -5 -44 -12 -3 -7
-6 12 -6 43 -2 102 -12 149 -32 149 -13 0 -19 -9 -22 -32 l-4 -33 -1 33 c-2
27 -6 32 -27 32 -14 0 -25 5 -25 11 0 6 -12 9 -27 7 -22 -2 -29 -9 -31 -30 -2
-16 1 -28 7 -28 6 0 11 -4 11 -10 0 -5 -16 -10 -35 -10 -35 0 -35 0 -35 45 0
38 3 45 20 45 13 0 20 7 20 20 0 18 -7 20 -60 20 l-60 0 0 75 0 75 81 0 82 0
-7 31 c-3 17 -6 38 -6 45 0 8 -9 14 -20 14 -15 0 -20 -7 -20 -25 0 -24 -3 -25
-55 -25 -30 0 -55 5 -55 10 0 6 18 10 40 10 36 0 40 3 40 25 0 23 -4 25 -40
25 -36 0 -40 3 -40 25 0 24 2 25 71 25 l72 0 -7 46 c-3 26 -6 64 -6 85 0 32
-3 39 -20 39 -18 0 -20 -7 -20 -55z m-1750 -1315 c0 -6 42 -10 105 -10 l105 0
0 -30 0 -30 -210 0 c-133 0 -210 4 -210 10 0 6 40 10 100 10 100 0 100 0 100
25 0 24 -1 24 -102 28 l-103 3 108 2 c66 1 107 -2 107 -8z"/>
</g>
</svg>
