<?xml version="1.0" standalone="no"?>
<!DOCTYPE svg PUBLIC "-//W3C//DTD SVG 20010904//EN"
 "http://www.w3.org/TR/2001/REC-SVG-20010904/DTD/svg10.dtd">
<svg version="1.0" xmlns="http://www.w3.org/2000/svg"
 width="1280.000000pt" height="720.000000pt" viewBox="0 0 1280.000000 720.000000"
 preserveAspectRatio="xMidYMid meet">
<metadata>
Created by potrace 1.16, written by Peter Selinger 2001-2019
</metadata>
<g transform="translate(0.000000,720.000000) scale(0.100000,-0.100000)"
fill="#000000" stroke="none">
<path d="M7320 6445 l0 -285 -35 0 -35 0 0 -140 c0 -77 -1 -140 -2 -141 -2 0
-95 -4 -208 -9 -239 -10 -296 -23 -346 -77 -18 -20 -99 -127 -181 -240 l-148
-205 -250 6 c-552 13 -1651 28 -2165 30 l-545 1 -90 -32 c-49 -17 -221 -85
-381 -152 -160 -67 -298 -121 -305 -121 -11 0 -19 39 -32 171 -10 94 -21 177
-23 184 -13 34 -245 44 -396 19 l-38 -7 0 -261 -1 -261 -66 -30 c-36 -16 -70
-31 -75 -33 -4 -2 -8 6 -8 17 0 27 -17 27 -138 -3 -53 -13 -109 -27 -124 -30
-27 -6 -28 -8 -28 -75 l0 -68 -67 -25 c-66 -24 -68 -26 -68 -59 0 -32 2 -34
67 -58 l67 -25 3 -66 3 -65 105 -22 c58 -12 124 -22 147 -23 39 0 42 2 45 28
l3 29 65 -26 65 -26 3 -232 2 -231 68 -8 c89 -10 278 -11 323 -1 l36 7 17 128
c10 70 19 132 21 139 3 8 33 3 102 -18 54 -16 148 -40 208 -52 l110 -22 3220
-3 c3274 -3 3430 -2 3790 34 662 66 1064 204 1163 400 76 152 47 336 -71 439
-152 133 -729 300 -1207 350 -233 24 -329 27 -900 29 l-525 1 -40 81 c-39 79
-116 281 -152 399 l-18 60 -377 3 -378 2 0 200 c0 193 -1 200 -20 200 -19 0
-20 -7 -20 -200 0 -171 -2 -200 -15 -200 -13 0 -15 23 -15 145 l0 145 -40 0
-40 0 0 285 0 285 -30 0 -30 0 0 -285z"/>
</g>
</svg>
