<?xml version="1.0" standalone="no"?>
<!DOCTYPE svg PUBLIC "-//W3C//DTD SVG 20010904//EN"
 "http://www.w3.org/TR/2001/REC-SVG-20010904/DTD/svg10.dtd">
<svg version="1.0" xmlns="http://www.w3.org/2000/svg"
 width="1280.000000pt" height="719.000000pt" viewBox="0 0 1280.000000 719.000000"
 preserveAspectRatio="xMidYMid meet">
<metadata>
Created by potrace 1.16, written by Peter Selinger 2001-2019
</metadata>
<g transform="translate(0.000000,719.000000) scale(0.100000,-0.100000)"
fill="#000000" stroke="none">
<path d="M3879 6336 l-67 -126 112 -58 c61 -32 485 -249 943 -483 l831 -424
-523 -3 -523 -2 -99 -160 -98 -159 -1462 -1 -1463 0 0 -110 0 -110 356 -2 356
-3 295 -437 295 -438 4148 0 4148 0 -20 73 c-12 39 -56 195 -98 345 l-77 272
168 0 169 0 0 100 0 100 -549 0 -548 0 -72 135 -72 135 -677 0 -677 0 -32 82
c-18 45 -32 82 -30 83 1 1 174 73 385 160 211 87 385 162 389 168 3 5 -12 65
-33 133 -28 91 -42 124 -54 124 -15 0 -807 -174 -841 -185 -12 -4 -21 6 -34
37 -9 24 -37 91 -62 150 l-45 108 -579 0 -579 0 0 310 0 310 -120 0 -120 0 0
-310 0 -310 -283 0 -283 0 -44 -120 c-24 -66 -48 -120 -53 -120 -4 0 -517 192
-1140 426 -623 235 -1141 429 -1152 431 -17 3 -31 -17 -86 -121z"/>
</g>
</svg>
